<svg id="svgWorkerArea" xmlns="http://www.w3.org/2000/svg" version="1.1" xmlns:xlink="http://www.w3.org/1999/xlink" xmlns:artdraw="https://artdraw.org" viewBox="0 0 600 600" width="100%" height="100%" style="background: white;" css="background:#9b9b9b;"><path id="pathImp-638790518" fill="rgb(7,6,0)" fill-opacity="1" paint-order="fill" stroke="rgb(0,0,0)" stroke-linecap="butt" stroke-linejoin="miter" stroke-opacity="0.000" class="cosito" d="M 269.70 82.90 C 269.70 82.90 109.90 82.90 109.90 82.90 C 92.00 82.90 77.90 97.00 77.90 114.90 C 77.90 114.90 77.90 178.80 77.90 178.90 C 77.90 196.50 92.00 210.80 109.90 210.90 C 109.90 210.80 487.10 210.80 487.10 210.90 C 491.50 210.80 495.60 209.10 498.60 206.20 C 498.60 206.10 546.50 158.10 546.50 158.20 C 552.70 151.80 552.70 141.80 546.50 135.60 C 546.50 135.50 498.60 87.50 498.60 87.60 C 495.60 84.50 491.50 82.90 487.10 82.90 C 487.10 82.90 333.70 82.90 333.70 82.90 C 333.70 65.10 319.60 50.90 301.70 50.90 C 284.20 50.90 269.70 65.10 269.70 82.90 C 269.70 82.90 269.70 82.90 269.70 82.90 M 525.90 306.90 C 525.90 289.20 511.60 274.70 493.70 274.90 C 493.70 274.70 333.70 274.70 333.70 274.90 C 333.70 274.70 333.70 242.80 333.70 242.90 C 333.70 242.80 269.70 242.80 269.70 242.90 C 269.70 242.80 269.70 274.70 269.70 274.90 C 269.70 274.70 116.40 274.70 116.40 274.90 C 112.30 274.70 108.00 276.50 105.00 279.60 C 105.00 279.50 57.20 327.60 57.20 327.60 C 50.90 333.60 50.90 344.00 57.20 350.20 C 57.20 350.10 105.00 398.10 105.00 398.20 C 108.00 401.10 112.30 402.70 116.40 402.90 C 116.40 402.70 493.70 402.70 493.70 402.90 C 511.60 402.70 525.90 388.60 525.90 370.90 C 525.90 370.70 525.90 306.70 525.90 306.90 C 525.90 306.70 525.90 306.70 525.90 306.90 M 333.70 530.90 C 333.70 530.90 333.70 434.70 333.70 434.90 C 333.70 434.70 269.70 434.70 269.70 434.90 C 269.70 434.70 269.70 530.90 269.70 530.90 C 269.70 548.50 284.20 562.90 301.70 562.90"></path><g id="text-787227659" class="cosito" selItem="0" fill="rgb(0, 0, 0)" stroke="none" stroke-linejoin="miter" stroke-linecap="butt" paint-order="fill" transform="matrix(0.9999999999999999,0,0,0.9999999999999999,7.100013732910099,12.300012588500962)"><path id="letter-130642223" fill="rgb(245,249,233)" fill-opacity="1" stroke="rgb(0,0,0)" stroke-opacity="1" stroke-width="1" d="M 190.40 317.40 C 193.70 317.40 196.70 318.10 199.40 319.38 C 202.20 320.70 204.40 322.50 205.90 324.77 C 207.60 327.10 208.40 329.50 208.40 332.22 C 208.40 332.30 208.40 332.30 208.40 332.22 C 208.40 335.80 207.40 338.80 205.40 341.22 C 203.40 343.60 200.40 345.30 196.40 346.34 C 196.40 346.40 196.40 346.40 196.40 346.34 C 196.40 346.40 196.40 346.80 196.40 346.78 C 200.40 347.30 203.60 348.80 206.20 351.45 C 208.80 354.00 210.10 357.40 210.10 361.42 C 210.10 361.40 210.10 361.40 210.10 361.42 C 210.10 364.60 209.20 367.50 207.40 370.02 C 205.60 372.50 203.30 374.40 200.40 375.84 C 197.40 377.30 194.30 377.90 191.10 377.92 C 191.10 377.90 191.10 377.90 191.10 377.92 C 191.10 377.90 160.00 377.90 160.00 377.92 C 160.00 377.90 160.00 317.40 160.00 317.40 C 160.00 317.40 190.40 317.40 190.40 317.40 C 190.40 317.40 190.40 317.40 190.40 317.40 M 188.40 325.25 C 188.40 325.20 169.90 325.20 169.90 325.25 C 169.90 325.20 169.90 343.10 169.90 343.16 C 169.90 343.10 188.40 343.10 188.40 343.16 C 191.10 343.10 193.40 342.30 195.60 340.60 C 197.60 338.90 198.60 336.80 198.60 334.25 C 198.60 334.20 198.60 334.20 198.60 334.25 C 198.60 331.80 197.60 329.60 195.60 327.90 C 193.60 326.10 191.30 325.20 188.40 325.25 C 188.40 325.20 188.40 325.20 188.40 325.25 C 188.40 325.20 188.40 325.20 188.40 325.25 M 189.40 351.01 C 189.40 351.00 169.90 351.00 169.90 351.01 C 169.90 351.00 169.90 370.10 169.90 370.07 C 169.90 370.10 189.40 370.10 189.40 370.07 C 192.40 370.10 194.90 369.10 197.10 367.29 C 199.20 365.40 200.30 363.10 200.30 360.54 C 200.30 360.50 200.30 360.50 200.30 360.54 C 200.30 357.80 199.20 355.60 197.10 353.79 C 194.90 351.90 192.40 351.00 189.40 351.01"></path><path id="letter-417200983" fill="rgb(245,249,233)" fill-opacity="1" stroke="rgb(0,0,0)" stroke-opacity="1" stroke-width="1" d="M 243.80 331.96 C 247.40 332.00 250.90 332.40 253.90 333.54 C 256.90 334.60 259.20 336.10 260.80 337.95 C 262.40 339.80 263.30 342.00 263.30 344.22 C 263.30 344.20 263.30 344.20 263.30 344.22 C 263.30 344.20 263.20 345.80 263.20 345.81 C 263.20 345.80 253.90 345.80 253.90 345.81 C 253.90 345.80 253.90 345.10 253.90 345.01 C 253.90 340.70 250.10 338.60 242.40 338.57 C 242.40 338.60 242.40 338.60 242.40 338.57 C 235.10 338.60 231.40 340.60 231.40 344.48 C 231.40 344.40 231.40 344.40 231.40 344.48 C 231.40 346.30 232.40 347.60 234.40 348.50 C 236.70 349.40 239.90 350.20 244.40 350.92 C 244.40 350.90 244.40 350.90 244.40 350.92 C 248.40 351.70 251.90 352.50 254.70 353.30 C 257.40 354.10 259.70 355.40 261.60 357.19 C 263.30 358.90 264.30 361.40 264.30 364.33 C 264.30 364.40 264.30 364.40 264.30 364.33 C 264.30 369.10 262.60 372.80 258.90 375.18 C 255.10 377.60 249.80 378.80 242.80 378.80 C 242.80 378.80 242.80 378.80 242.80 378.80 C 242.80 378.80 241.30 378.80 241.30 378.80 C 236.90 378.80 233.40 378.10 230.30 377.08 C 227.10 375.90 224.70 374.30 222.90 372.40 C 221.30 370.50 220.40 368.20 220.40 365.74 C 220.40 365.70 220.40 365.70 220.40 365.74 C 220.40 365.70 220.40 363.80 220.40 363.80 C 220.40 363.80 229.90 363.80 229.90 363.80 C 229.90 363.80 229.90 364.60 229.90 364.69 C 229.90 369.70 234.60 372.10 244.20 372.18 C 244.20 372.10 244.20 372.10 244.20 372.18 C 246.90 372.10 249.40 371.60 251.70 370.51 C 253.90 369.40 254.90 367.90 254.90 365.92 C 254.90 365.90 254.90 365.90 254.90 365.92 C 254.90 364.30 254.40 363.00 253.20 362.04 C 251.90 361.10 250.40 360.40 248.70 359.92 C 246.90 359.40 244.40 359.00 241.20 358.51 C 241.20 358.50 241.20 358.50 241.20 358.51 C 236.90 357.80 233.70 357.00 231.20 356.35 C 228.60 355.60 226.40 354.30 224.70 352.60 C 222.90 350.80 221.90 348.40 221.90 345.37 C 221.90 345.30 221.90 345.30 221.90 345.37 C 221.90 341.20 223.80 337.90 227.40 335.53 C 231.30 333.10 236.40 332.00 242.90 331.96 C 242.90 332.00 242.90 332.00 242.90 331.96"></path></g><defs id="defsdoc"><pattern id="patternBool" x="0" y="0" width="10" height="10" patternUnits="userSpaceOnUse" patternTransform="rotate(35)"><circle cx="5" cy="5" r="4" style="stroke: none;fill: #ff000070;"></circle></pattern></defs><path id="path-551716908" fill="none" stroke="#000" stroke-width="2" class="cosito" d=""></path><g id="text-445129317" class="cosito" selItem="1" transform="matrix(0.9999999999999999,0,0,0.9999999999999999,6.099998474121037,15.299990653991685)"><path id="letter-992030035" fill="rgb(245,249,233)" fill-opacity="1" stroke="#000000" stroke-width="1" d="M 409.60 304.60 C 409.60 304.50 408.50 313.50 408.50 313.50 C 414.60 313.70 419.60 315.50 423.20 318.50 C 426.80 321.50 428.60 325.50 428.60 331.10 C 428.60 331.00 428.60 331.00 428.60 331.10 C 428.60 331.00 428.60 332.20 428.60 332.30 C 428.60 332.20 419.10 332.20 419.10 332.30 C 419.10 332.20 419.10 330.70 419.10 330.90 C 419.10 328.00 418.00 325.70 415.60 324.30 C 413.20 322.60 410.10 322.00 406.20 322.00 C 406.20 322.00 406.20 322.00 406.20 322.00 C 402.30 322.00 399.10 322.50 396.60 324.05 C 394.20 325.30 393.00 327.30 393.00 330.10 C 393.00 330.00 393.00 330.00 393.00 330.10 C 393.00 332.00 393.60 333.60 395.00 334.95 C 396.30 336.00 398.00 337.00 400.00 337.90 C 402.00 338.50 404.70 339.50 408.30 340.50 C 408.30 340.50 408.30 340.50 408.30 340.50 C 413.00 341.50 416.80 342.70 419.70 344.10 C 422.60 345.20 425.10 347.00 427.10 349.50 C 429.20 351.70 430.30 355.00 430.30 359.00 C 430.30 358.80 430.30 358.80 430.30 359.00 C 430.30 365.00 428.30 369.70 424.70 373.20 C 421.00 376.50 415.60 378.20 408.50 378.70 C 408.50 378.60 408.50 378.60 408.50 378.70 C 408.50 378.60 409.60 387.00 409.60 387.20 C 409.60 387.00 402.20 387.00 402.20 387.20 C 402.20 387.00 403.20 378.50 403.20 378.60 C 396.30 378.00 391.00 376.20 387.30 373.15 C 383.80 369.80 381.80 365.30 381.80 359.70 C 381.80 359.60 381.80 359.60 381.80 359.70 C 381.80 359.60 382.10 357.70 382.10 357.90 C 382.10 357.70 391.50 357.70 391.50 357.90 C 391.50 357.70 391.50 359.70 391.50 359.80 C 391.50 363.10 392.70 365.60 395.30 367.50 C 397.80 369.10 401.30 370.00 405.60 370.10 C 405.60 370.00 405.60 370.00 405.60 370.10 C 415.80 370.00 420.80 366.70 420.80 360.40 C 420.80 360.20 420.80 360.20 420.80 360.40 C 420.80 358.10 420.10 356.50 418.80 355.15 C 417.30 353.60 415.60 352.60 413.30 351.95 C 411.30 351.00 408.30 350.20 404.70 349.30 C 404.70 349.20 404.70 349.20 404.70 349.30 C 400.10 348.00 396.50 346.70 393.70 345.70 C 390.80 344.50 388.50 342.70 386.30 340.60 C 384.30 338.20 383.30 335.20 383.30 331.60 C 383.30 331.50 383.30 331.50 383.30 331.60 C 383.30 325.60 385.20 321.20 388.80 318.45 C 392.30 315.50 397.20 313.80 403.30 313.50 C 403.30 313.50 403.30 313.50 403.30 313.50 C 403.30 313.50 402.20 304.50 402.20 304.60"></path></g><g id="text-240520917" class="cosito"></g><g id="text-273856739" class="cosito" selItem="0" transform="matrix(0.9999999999999999,0,0,0.9999999999999999,0.09999990463251152,1.9999876022338725)"><path id="letter-76351396" fill="rgb(245,249,233)" fill-opacity="1" stroke="#000000" stroke-width="1" d="M 129.60 106.80 C 134.90 106.70 139.50 107.70 143.50 109.90 C 147.50 111.90 150.50 114.70 152.70 118.70 C 154.80 122.40 155.90 126.70 155.90 131.90 C 155.90 131.70 155.90 131.70 155.90 131.90 C 155.90 131.70 146.10 131.70 146.10 131.90 C 146.10 126.60 144.60 122.60 141.80 119.95 C 139.00 117.00 134.90 115.50 129.60 115.70 C 129.60 115.50 129.60 115.50 129.60 115.70 C 123.50 115.50 119.00 117.50 115.70 121.25 C 112.50 124.90 111.00 130.20 111.00 137.60 C 111.00 137.50 111.00 137.50 111.00 137.60 C 111.00 137.50 111.00 146.50 111.00 146.60 C 111.00 153.60 112.50 159.10 115.60 162.95 C 118.70 166.50 123.50 168.40 129.60 168.50 C 129.60 168.40 129.60 168.40 129.60 168.50 C 135.40 168.40 139.60 167.00 142.20 164.15 C 144.90 161.10 146.20 156.50 146.20 150.30 C 146.20 150.10 146.20 150.10 146.20 150.30 C 146.20 150.10 146.20 149.00 146.20 149.00 C 146.20 149.00 126.70 149.00 126.70 149.00 C 126.70 149.00 126.70 140.00 126.70 140.20 C 126.70 140.00 155.90 140.00 155.90 140.20 C 155.90 140.00 155.90 163.50 155.90 163.60 C 155.90 169.00 156.10 173.20 156.40 176.40 C 156.40 176.20 156.40 176.20 156.40 176.40 C 156.40 176.20 150.70 176.20 150.70 176.40 C 149.80 173.50 149.10 170.90 148.70 168.20 C 148.70 168.10 148.70 168.10 148.70 168.20 C 144.30 174.20 137.90 177.20 129.60 177.40 C 129.60 177.20 129.60 177.20 129.60 177.40 C 120.50 177.20 113.60 174.50 108.60 169.25 C 103.60 163.70 101.10 156.10 101.10 146.60 C 101.10 146.50 101.10 146.50 101.10 146.60 C 101.10 146.50 101.10 137.50 101.10 137.60 C 101.10 127.90 103.60 120.40 108.60 115.00 C 113.60 109.50 120.50 106.70 129.60 106.80"></path><path id="letter-501021961" fill="rgb(245,249,233)" fill-opacity="1" stroke="#000000" stroke-width="1" d="M 191.20 124.30 C 198.00 124.20 203.00 125.50 206.30 128.30 C 209.60 130.90 211.20 134.70 211.20 139.90 C 211.20 139.70 211.20 139.70 211.20 139.90 C 211.20 139.70 211.20 166.20 211.20 166.40 C 211.20 167.50 211.50 168.40 212.10 169.05 C 212.60 169.50 213.20 169.70 214.10 169.90 C 214.10 169.70 214.10 169.70 214.10 169.90 C 215.60 169.70 217.10 169.40 218.70 168.50 C 218.70 168.40 218.70 168.40 218.70 168.50 C 218.70 168.40 218.70 175.20 218.70 175.40 C 216.40 176.50 213.80 177.20 211.00 177.40 C 211.00 177.20 211.00 177.20 211.00 177.40 C 208.10 177.20 206.00 176.40 204.60 174.95 C 203.20 173.20 202.40 171.00 202.20 168.20 C 202.20 168.10 202.20 168.10 202.20 168.20 C 198.10 174.20 192.20 177.20 184.30 177.40 C 184.30 177.20 184.30 177.20 184.30 177.40 C 178.70 177.20 174.60 176.00 171.80 173.75 C 169.00 171.20 167.70 167.40 167.70 162.20 C 167.70 162.10 167.70 162.10 167.70 162.20 C 167.70 158.00 168.70 154.70 170.80 152.45 C 173.00 150.00 176.50 148.20 181.50 147.30 C 186.40 146.10 193.20 145.50 201.80 145.70 C 201.80 145.50 201.80 145.50 201.80 145.70 C 201.80 145.50 201.80 140.90 201.80 141.00 C 201.80 137.50 200.80 135.10 198.80 133.85 C 196.80 132.40 194.00 131.70 190.20 131.80 C 190.20 131.70 190.20 131.70 190.20 131.80 C 186.60 131.70 183.70 132.40 181.70 133.90 C 179.70 135.20 178.70 137.10 178.70 139.80 C 178.70 139.70 178.70 139.70 178.70 139.80 C 178.70 139.70 178.70 140.90 178.70 141.00 C 178.70 140.90 169.60 140.90 169.60 141.00 C 169.40 140.00 169.30 138.90 169.30 137.70 C 169.30 137.50 169.30 137.50 169.30 137.70 C 169.30 135.20 170.30 133.00 172.20 131.10 C 174.00 129.00 176.60 127.20 179.70 126.15 C 183.00 124.90 186.50 124.20 190.30 124.30 C 190.30 124.20 190.30 124.20 190.30 124.30 C 190.30 124.20 191.20 124.20 191.20 124.30 C 191.20 124.20 191.20 124.20 191.20 124.30 M 201.80 153.00 C 194.80 153.00 189.60 153.20 186.00 154.05 C 182.40 154.60 180.10 155.60 178.80 157.20 C 177.70 158.50 177.10 160.50 177.10 163.00 C 177.10 163.00 177.10 163.00 177.10 163.00 C 177.10 167.50 180.60 169.70 187.60 169.90 C 187.60 169.70 187.60 169.70 187.60 169.90 C 190.00 169.70 192.30 169.10 194.60 168.05 C 196.70 166.70 198.50 165.00 199.80 162.80 C 201.20 160.50 201.80 157.90 201.80 155.00 C 201.80 155.00 201.80 155.00 201.80 155.00"></path><path id="letter-852339779" fill="rgb(245,249,233)" fill-opacity="1" stroke="#000000" stroke-width="1" d="M 240.70 109.00 C 240.70 108.90 240.70 125.20 240.70 125.30 C 240.70 125.20 252.50 125.20 252.50 125.30 C 252.50 125.20 252.50 132.70 252.50 132.80 C 252.50 132.70 240.70 132.70 240.70 132.80 C 240.70 132.70 240.70 163.10 240.70 163.30 C 240.70 165.60 241.10 167.40 242.00 168.50 C 243.00 169.50 244.40 170.00 246.30 170.10 C 246.30 170.00 246.30 170.00 246.30 170.10 C 248.10 170.00 250.20 169.50 252.50 168.60 C 252.50 168.50 252.50 168.50 252.50 168.60 C 252.50 168.50 252.50 175.50 252.50 175.60 C 250.20 176.60 247.00 177.20 243.30 177.40 C 243.30 177.20 243.30 177.20 243.30 177.40 C 239.30 177.20 236.30 176.10 234.30 173.90 C 232.30 171.50 231.30 167.70 231.30 162.80 C 231.30 162.60 231.30 162.60 231.30 162.80 C 231.30 162.60 231.30 132.70 231.30 132.80 C 231.30 132.70 225.70 132.70 225.70 132.80 C 225.70 132.70 225.70 125.20 225.70 125.30 C 225.70 125.20 231.50 125.20 231.50 125.30 C 231.50 125.20 234.80 108.90 234.80 109.00"></path><path id="letter-542325832" fill="rgb(245,249,233)" fill-opacity="1" stroke="#000000" stroke-width="1" d="M 284.80 124.30 C 288.80 124.20 292.70 125.00 295.80 126.95 C 299.10 128.60 301.70 131.10 303.30 134.50 C 305.30 137.60 306.20 141.50 306.20 145.90 C 306.20 145.70 306.20 145.70 306.20 145.90 C 306.20 145.70 306.20 153.00 306.20 153.00 C 306.20 153.00 270.30 153.00 270.30 153.00 C 270.60 158.20 271.80 162.50 274.30 165.50 C 276.70 168.40 280.20 169.70 284.80 169.90 C 284.80 169.70 284.80 169.70 284.80 169.90 C 289.20 169.70 292.30 168.50 294.30 166.20 C 296.30 163.60 297.30 160.60 297.30 157.40 C 297.30 157.20 297.30 157.20 297.30 157.40 C 297.30 157.20 306.20 157.20 306.20 157.40 C 306.20 161.20 305.20 164.70 303.30 167.90 C 301.60 170.70 298.80 173.10 295.80 174.90 C 292.60 176.40 288.80 177.20 284.80 177.40 C 284.80 177.20 284.80 177.20 284.80 177.40 C 284.80 177.20 284.30 177.20 284.30 177.40 C 277.20 177.20 271.30 175.00 267.30 170.45 C 263.10 165.70 260.80 159.50 260.80 151.90 C 260.80 151.70 260.80 151.70 260.80 151.90 C 260.80 151.70 260.80 149.70 260.80 149.90 C 260.80 144.70 261.80 140.20 263.80 136.50 C 265.70 132.50 268.30 129.50 271.80 127.50 C 275.30 125.20 279.30 124.20 283.80 124.30 C 283.80 124.20 283.80 124.20 283.80 124.30 C 283.80 124.20 284.80 124.20 284.80 124.30 C 284.80 124.20 284.80 124.20 284.80 124.30 M 284.30 131.80 C 280.30 131.70 277.30 132.90 274.80 135.30 C 272.60 137.50 271.20 141.00 270.70 145.70 C 270.70 145.50 270.70 145.50 270.70 145.70 C 270.70 145.50 296.80 145.50 296.80 145.70 C 296.80 145.50 296.80 144.50 296.80 144.50 C 296.80 140.50 295.70 137.50 293.30 135.30 C 291.10 132.90 287.80 131.70 284.30 131.80"></path><path id="letter-61570927" fill="rgb(245,249,233)" fill-opacity="1" stroke="#000000" stroke-width="1" d="M 381.30 125.30 C 381.30 125.20 390.30 125.20 390.30 125.30 C 390.30 125.20 373.80 176.20 373.80 176.40 C 373.80 176.20 363.80 176.20 363.80 176.40 C 363.80 176.20 352.20 140.50 352.20 140.70 C 352.20 140.50 351.80 140.50 351.80 140.70 C 351.80 140.50 340.20 176.20 340.20 176.40 C 340.20 176.20 330.30 176.20 330.30 176.40 C 330.30 176.20 313.30 125.20 313.30 125.30 C 313.30 125.20 323.30 125.20 323.30 125.30 C 323.30 125.20 335.20 162.60 335.20 162.70 C 335.20 162.60 335.30 162.60 335.30 162.70 C 335.30 162.60 347.70 125.20 347.70 125.30 C 347.70 125.20 356.80 125.20 356.80 125.30 C 356.80 125.20 368.80 162.60 368.80 162.70 C 368.80 162.60 369.20 162.60 369.20 162.70"></path><path id="letter-337160447" fill="rgb(245,249,233)" fill-opacity="1" stroke="#000000" stroke-width="1" d="M 420.80 124.30 C 427.80 124.20 432.80 125.50 436.10 128.30 C 439.30 130.90 440.80 134.70 440.80 139.90 C 440.80 139.70 440.80 139.70 440.80 139.90 C 440.80 139.70 440.80 166.20 440.80 166.40 C 440.80 167.50 441.30 168.40 441.80 169.05 C 442.30 169.50 442.80 169.70 443.80 169.90 C 443.80 169.70 443.80 169.70 443.80 169.90 C 445.30 169.70 446.80 169.40 448.30 168.50 C 448.30 168.40 448.30 168.40 448.30 168.50 C 448.30 168.40 448.30 175.20 448.30 175.40 C 446.20 176.50 443.60 177.20 440.80 177.40 C 440.80 177.20 440.80 177.20 440.80 177.40 C 437.80 177.20 435.80 176.40 434.30 174.95 C 432.80 173.20 432.20 171.00 431.80 168.20 C 431.80 168.10 431.80 168.10 431.80 168.20 C 427.80 174.20 421.80 177.20 414.20 177.40 C 414.20 177.20 414.20 177.20 414.20 177.40 C 408.30 177.20 404.30 176.00 401.60 173.75 C 398.80 171.20 397.30 167.40 397.30 162.20 C 397.30 162.10 397.30 162.10 397.30 162.20 C 397.30 158.00 398.30 154.70 400.70 152.45 C 402.80 150.00 406.30 148.20 411.30 147.30 C 416.20 146.10 422.80 145.50 431.70 145.70 C 431.70 145.50 431.70 145.50 431.70 145.70 C 431.70 145.50 431.70 140.90 431.70 141.00 C 431.70 137.50 430.70 135.10 428.70 133.85 C 426.70 132.40 423.80 131.70 419.80 131.80 C 419.80 131.70 419.80 131.70 419.80 131.80 C 416.30 131.70 413.30 132.40 411.30 133.90 C 409.30 135.20 408.30 137.10 408.30 139.80 C 408.30 139.70 408.30 139.70 408.30 139.80 C 408.30 139.70 408.30 140.90 408.30 141.00 C 408.30 140.90 399.30 140.90 399.30 141.00 C 399.20 140.00 399.20 138.90 399.20 137.70 C 399.20 137.50 399.20 137.50 399.20 137.70 C 399.20 135.20 400.10 133.00 401.80 131.10 C 403.80 129.00 406.30 127.20 409.30 126.15 C 412.80 124.90 416.30 124.20 420.20 124.30 C 420.20 124.20 420.20 124.20 420.20 124.30 C 420.20 124.20 420.80 124.20 420.80 124.30 C 420.80 124.20 420.80 124.20 420.80 124.30 M 431.70 153.00 C 424.70 153.00 419.30 153.20 415.80 154.05 C 412.20 154.60 409.80 155.60 408.70 157.20 C 407.30 158.50 406.80 160.50 406.80 163.00 C 406.80 163.00 406.80 163.00 406.80 163.00 C 406.80 167.50 410.30 169.70 417.30 169.90 C 417.30 169.70 417.30 169.70 417.30 169.90 C 419.80 169.70 422.20 169.10 424.30 168.05 C 426.30 166.70 428.30 165.00 429.70 162.80 C 430.80 160.50 431.70 157.90 431.70 155.00 C 431.70 155.00 431.70 155.00 431.70 155.00"></path><path id="letter-549238184" fill="rgb(245,249,233)" fill-opacity="1" stroke="#000000" stroke-width="1" d="M 501.20 125.30 C 501.20 125.20 481.80 174.20 481.80 174.40 C 479.80 179.70 477.70 184.00 475.80 187.25 C 473.80 190.00 471.80 192.00 469.80 193.35 C 467.80 194.20 465.30 194.90 462.80 195.00 C 462.80 194.90 462.80 194.90 462.80 195.00 C 460.30 194.90 457.80 194.40 455.80 193.60 C 455.80 193.50 455.80 193.50 455.80 193.60 C 455.80 193.50 455.80 185.70 455.80 185.90 C 457.80 186.60 459.70 187.00 460.80 187.30 C 460.80 187.00 460.80 187.00 460.80 187.30 C 463.60 187.00 465.80 186.10 467.70 184.55 C 469.30 182.50 470.80 179.60 472.30 175.90 C 472.30 175.70 472.30 175.70 472.30 175.90 C 472.30 175.70 452.30 125.20 452.30 125.30 C 452.30 125.20 462.30 125.20 462.30 125.30 C 462.30 125.20 476.80 163.00 476.80 163.00 C 476.80 163.00 477.30 163.00 477.30 163.00 C 477.30 163.00 491.80 125.20 491.80 125.30"></path></g></svg>